<svg xmlns="http://www.w3.org/2000/svg" viewBox="0 0 1280 1100" font-family="'Segoe UI', Helvetica, Arial, sans-serif">
  <defs>
    <style>
      .tile { fill:#ffffff; stroke:#e2e5ea; stroke-width:1.5; }
      .num  { fill:#aab2c0; font-size:15px; font-weight:700; }
      .lab  { fill:#1b2230; font-size:19px; font-weight:700; text-anchor:middle; }
      .sub  { fill:#8a93a3; font-size:13px; text-anchor:middle; }
      .ink  { stroke:#1b2230; }
      .rust { stroke:#d6602e; }
      .teal { stroke:#11868a; }
      .s7   { stroke-width:7; fill:none; stroke-linecap:round; stroke-linejoin:round; }
      .s10  { stroke-width:10; fill:none; stroke-linecap:round; stroke-linejoin:round; }
      .chk  { stroke:#21a366; stroke-width:9; fill:none; stroke-linecap:round; stroke-linejoin:round; }
    </style>
  </defs>

  <rect width="1280" height="1100" fill="#f4f5f7"/>

  <!-- header -->
  <text x="24" y="56" font-size="34" font-weight="800" fill="#1b2230">imaging-<tspan fill="#d6602e">governance</tspan></text>
  <text x="24" y="86" font-size="16" fill="#5b6573">logo directions · <tspan font-weight="700" fill="#11868a">govcore</tspan> — model proposes, deterministic engine disposes</text>
  <text x="1256" y="86" font-size="14" fill="#aab2c0" text-anchor="end">12 random viewpoints · pick any to refine</text>
  <line x1="24" y1="104" x2="1256" y2="104" stroke="#e2e5ea" stroke-width="2"/>

  <!-- ======================= ROW 1 ======================= -->

  <!-- 1 GATE -->
  <g transform="translate(24,124)">
    <rect class="tile" width="297" height="300" rx="14"/>
    <text class="num" x="16" y="28">01</text>
    <path class="ink s10" d="M104 72 V178 M192 72 V178 M96 72 H200"/>
    <path class="chk" d="M116 132 L138 154 L186 100"/>
    <text class="lab" x="148" y="252">Gate</text>
    <text class="sub" x="148" y="274">pass-through checkpoint</text>
  </g>

  <!-- 2 ARBITER -->
  <g transform="translate(335,124)">
    <rect class="tile" width="297" height="300" rx="14"/>
    <text class="num" x="16" y="28">02</text>
    <g transform="translate(0,2)">
      <rect x="92" y="86" width="78" height="34" rx="9" fill="#1b2230" transform="rotate(-42 131 103)"/>
      <line x1="150" y1="120" x2="196" y2="170" class="rust s10"/>
      <line x1="104" y1="186" x2="176" y2="186" class="ink s10"/>
    </g>
    <text class="lab" x="148" y="252">Arbiter</text>
    <text class="sub" x="148" y="274">the deterministic judge</text>
  </g>

  <!-- 3 RESOLVE -->
  <g transform="translate(646,124)">
    <rect class="tile" width="297" height="300" rx="14"/>
    <text class="num" x="16" y="28">03</text>
    <g fill="#d6602e">
      <circle cx="74" cy="100" r="7" opacity="0.35"/>
      <circle cx="96" cy="86" r="7" opacity="0.55"/>
      <circle cx="86" cy="118" r="7" opacity="0.75"/>
      <circle cx="108" cy="108" r="7" opacity="0.5"/>
      <circle cx="78" cy="138" r="7" opacity="0.6"/>
      <circle cx="100" cy="142" r="7" opacity="0.4"/>
      <circle cx="70" cy="118" r="6" opacity="0.3"/>
    </g>
    <path class="ink s7" d="M124 118 H168 M158 108 L172 118 L158 128"/>
    <polygon points="214,90 240,104 240,132 214,146 188,132 188,104" fill="#11868a"/>
    <text class="lab" x="148" y="252">Proposes→Disposes</text>
    <text class="sub" x="148" y="274">noise resolves to a verdict</text>
  </g>

  <!-- 4 CORE HEX -->
  <g transform="translate(957,124)">
    <rect class="tile" width="297" height="300" rx="14"/>
    <text class="num" x="16" y="28">04</text>
    <polygon class="ink s7" points="148,68 200,98 200,158 148,188 96,158 96,98"/>
    <polygon class="rust s7" points="148,90 181,109 181,147 148,166 115,147 115,109"/>
    <circle cx="148" cy="128" r="11" fill="#11868a"/>
    <text class="lab" x="148" y="252">Core</text>
    <text class="sub" x="148" y="274">concentric Rust hex · govcore</text>
  </g>

  <!-- ======================= ROW 2 ======================= -->

  <!-- 5 VOXEL -->
  <g transform="translate(24,440)">
    <rect class="tile" width="297" height="300" rx="14"/>
    <text class="num" x="16" y="28">05</text>
    <g transform="translate(148,126)">
      <!-- iso cube -->
      <polygon points="0,-44 44,-20 0,4 -44,-20" fill="#11868a"/>
      <polygon points="-44,-20 0,4 0,52 -44,28" fill="#1b2230"/>
      <polygon points="44,-20 0,4 0,52 44,28" fill="#d6602e"/>
    </g>
    <text class="lab" x="148" y="252">Voxel</text>
    <text class="sub" x="148" y="274">isometric volume core</text>
  </g>

  <!-- 6 SEAL -->
  <g transform="translate(335,440)">
    <rect class="tile" width="297" height="300" rx="14"/>
    <text class="num" x="16" y="28">06</text>
    <g transform="translate(148,126)">
      <g stroke="#1b2230" stroke-width="6" stroke-linecap="round">
        <line x1="0" y1="-58" x2="0" y2="-46"/><line x1="29" y1="-50" x2="23" y2="-40"/>
        <line x1="50" y1="-29" x2="40" y2="-23"/><line x1="58" y1="0" x2="46" y2="0"/>
        <line x1="50" y1="29" x2="40" y2="23"/><line x1="29" y1="50" x2="23" y2="40"/>
        <line x1="0" y1="58" x2="0" y2="46"/><line x1="-29" y1="50" x2="-23" y2="40"/>
        <line x1="-50" y1="29" x2="-40" y2="23"/><line x1="-58" y1="0" x2="-46" y2="0"/>
        <line x1="-50" y1="-29" x2="-40" y2="-23"/><line x1="-29" y1="-50" x2="-23" y2="-40"/>
      </g>
      <circle r="38" fill="none" stroke="#d6602e" stroke-width="6" stroke-dasharray="4 7"/>
      <path class="chk" d="M-18 2 L-4 16 L20 -14"/>
    </g>
    <text class="lab" x="148" y="252">Seal</text>
    <text class="sub" x="148" y="274">stamp of determinism</text>
  </g>

  <!-- 7 RETICLE -->
  <g transform="translate(646,440)">
    <rect class="tile" width="297" height="300" rx="14"/>
    <text class="num" x="16" y="28">07</text>
    <g transform="translate(148,126)">
      <circle r="48" class="ink s7"/>
      <g class="ink s7">
        <line x1="0" y1="-66" x2="0" y2="-40"/><line x1="0" y1="40" x2="0" y2="66"/>
        <line x1="-66" y1="0" x2="-40" y2="0"/><line x1="40" y1="0" x2="66" y2="0"/>
      </g>
      <circle r="6" fill="#d6602e" stroke="none"/>
      <path class="chk" d="M6 18 L18 30 L40 6"/>
    </g>
    <text class="lab" x="148" y="252">Reticle</text>
    <text class="sub" x="148" y="274">clinical crosshair + check</text>
  </g>

  <!-- 8 HELIX -->
  <g transform="translate(957,440)">
    <rect class="tile" width="297" height="300" rx="14"/>
    <text class="num" x="16" y="28">08</text>
    <g transform="translate(148,126)">
      <path class="teal s7" d="M-26 -56 C 26 -28, 26 28, -26 56"/>
      <path class="rust s7" d="M26 -56 C -26 -28, -26 28, 26 56"/>
      <g stroke="#1b2230" stroke-width="5" stroke-linecap="round">
        <line x1="-22" y1="-38" x2="22" y2="-38"/>
        <line x1="-26" y1="-12" x2="26" y2="-12"/>
        <line x1="-26" y1="14" x2="26" y2="14"/>
        <line x1="-22" y1="40" x2="22" y2="40"/>
      </g>
      <path class="ink s7" d="M-48 -62 H-58 V62 H-48 M48 -62 H58 V62 H48"/>
    </g>
    <text class="lab" x="148" y="252">Helix gate</text>
    <text class="sub" x="148" y="274">genomics through the bracket</text>
  </g>

  <!-- ======================= ROW 3 ======================= -->

  <!-- 9 SLICES -->
  <g transform="translate(24,756)">
    <rect class="tile" width="297" height="300" rx="14"/>
    <text class="num" x="16" y="28">09</text>
    <g transform="translate(148,126)">
      <rect x="-66" y="-48" width="120" height="22" rx="11" fill="#1b2230"/>
      <rect x="-66" y="-14" width="120" height="22" rx="11" fill="#11868a"/>
      <rect x="-66" y="20"  width="120" height="22" rx="11" fill="#d6602e"/>
      <circle cx="66" cy="31" r="22" fill="#fff" stroke="#21a366" stroke-width="4"/>
      <path class="chk" d="M56 31 L64 39 L78 23"/>
    </g>
    <text class="lab" x="148" y="252">Slices</text>
    <text class="sub" x="148" y="274">DICOM stack, gated</text>
  </g>

  <!-- 10 BRACES -->
  <g transform="translate(335,756)">
    <rect class="tile" width="297" height="300" rx="14"/>
    <text class="num" x="16" y="28">10</text>
    <text x="92" y="166" font-size="150" font-weight="300" fill="#1b2230" text-anchor="middle">{</text>
    <text x="204" y="166" font-size="150" font-weight="300" fill="#1b2230" text-anchor="middle">}</text>
    <path class="chk" d="M126 128 L144 146 L176 104"/>
    <text class="lab" x="148" y="252">Disposition</text>
    <text class="sub" x="148" y="274">braces enclose the verdict</text>
  </g>

  <!-- 11 VERDICT shield -->
  <g transform="translate(646,756)">
    <rect class="tile" width="297" height="300" rx="14"/>
    <text class="num" x="16" y="28">11</text>
    <g transform="translate(148,124)">
      <path class="ink s7" d="M0 -60 L52 -40 V8 C52 44, 26 62, 0 72 C-26 62, -52 44, -52 8 V-40 Z"/>
      <circle cx="0" cy="-18" r="9" fill="#21a366"/>
      <circle cx="0" cy="8"  r="9" fill="#e0a200"/>
      <circle cx="0" cy="34" r="9" fill="#db4d36"/>
    </g>
    <text class="lab" x="148" y="252">Verdict</text>
    <text class="sub" x="148" y="274">pass · warn · fail, shielded</text>
  </g>

  <!-- 12 MONOGRAM -->
  <g transform="translate(957,756)">
    <rect class="tile" width="297" height="300" rx="14"/>
    <text class="num" x="16" y="28">12</text>
    <text x="142" y="170" font-size="132" font-weight="800" fill="#1b2230" text-anchor="middle" letter-spacing="-6">g<tspan fill="#d6602e">c</tspan></text>
    <circle cx="214" cy="80" r="9" fill="#11868a"/>
    <text class="lab" x="148" y="252">Monogram</text>
    <text class="sub" x="148" y="274">gc ligature · the core, marked</text>
  </g>
</svg>
