<svg xmlns="http://www.w3.org/2000/svg" viewBox="0 0 1040 412" font-family="'Segoe UI', Helvetica, Arial, sans-serif">
<rect width="1040" height="412" rx="16" fill="#ffffff" stroke="#e2e5ea" stroke-width="2"/>
<rect width="1040" height="6" rx="3" fill="#d6602e"/>
<text x="28" y="46" font-size="23" font-weight="800" fill="#1b2230">Segmentation governance — Space #2</text>
<text x="28" y="72" font-size="14" fill="#5b6573">model proposal: 'Fragmented kidney' · 48³ volume</text>
<rect x="812" y="28" width="200" height="40" rx="20" fill="#db4d36"/>
<text x="912" y="54" font-size="16" font-weight="800" fill="#fff" text-anchor="middle">BLOCKED</text>
<rect x="28" y="82" width="86" height="26" rx="6" fill="#21a366"/>
<text x="71" y="100" font-size="13" font-weight="700" fill="#fff" text-anchor="middle">PASS</text>
<text x="130" y="100" font-size="15" font-weight="700" fill="#1b2230">Mask shape validity</text>
<text x="470" y="100" font-size="14" fill="#5b6573">Mask is a valid 48x48x48 volume (110592 voxels).</text>
<rect x="28" y="120" width="86" height="26" rx="6" fill="#21a366"/>
<text x="71" y="138" font-size="13" font-weight="700" fill="#fff" text-anchor="middle">PASS</text>
<text x="130" y="138" font-size="15" font-weight="700" fill="#1b2230">Label consistency</text>
<text x="470" y="138" font-size="14" fill="#5b6573">Binary mask: 1236/110592 voxels foreground.</text>
<rect x="28" y="158" width="86" height="26" rx="6" fill="#db4d36"/>
<text x="71" y="176" font-size="13" font-weight="700" fill="#fff" text-anchor="middle">FAIL</text>
<text x="130" y="176" font-size="15" font-weight="700" fill="#1b2230">Volume plausibility</text>
<text x="470" y="176" font-size="14" fill="#5b6573">79.104 mL is below the plausible 80–400 mL for 'kidney'.</text>
<rect x="28" y="196" width="86" height="26" rx="6" fill="#db4d36"/>
<text x="71" y="214" font-size="13" font-weight="700" fill="#fff" text-anchor="middle">FAIL</text>
<text x="130" y="214" font-size="15" font-weight="700" fill="#1b2230">Connectivity / fragment sanity</text>
<text x="470" y="214" font-size="14" fill="#5b6573">Fragmented: 126 components, largest only 79.4% of foreground.</text>
<rect x="28" y="234" width="86" height="26" rx="6" fill="#21a366"/>
<text x="71" y="252" font-size="13" font-weight="700" fill="#fff" text-anchor="middle">PASS</text>
<text x="130" y="252" font-size="15" font-weight="700" fill="#1b2230">Boundary / out-of-field</text>
<text x="470" y="252" font-size="14" fill="#5b6573">Only 0.0% of foreground touches the border — within field.</text>
<rect x="28" y="272" width="86" height="26" rx="6" fill="#21a366"/>
<text x="71" y="290" font-size="13" font-weight="700" fill="#fff" text-anchor="middle">PASS</text>
<text x="130" y="290" font-size="15" font-weight="700" fill="#1b2230">Shape compactness</text>
<text x="470" y="290" font-size="14" fill="#5b6573">Fills 22.4% of its bounding box — compact.</text>
<rect x="28" y="310" width="86" height="26" rx="6" fill="#db4d36"/>
<text x="71" y="328" font-size="13" font-weight="700" fill="#fff" text-anchor="middle">FAIL</text>
<text x="130" y="328" font-size="15" font-weight="700" fill="#1b2230">Gate decision</text>
<text x="470" y="328" font-size="14" fill="#5b6573">Mask BLOCKED — failed a deterministic plausibility gate.</text>
<line x1="28" y1="372" x2="1012" y2="372" stroke="#eef0f3" stroke-width="1.5"/>
<text x="28" y="394" font-size="13" fill="#8a93a3">deterministic · <tspan font-weight="700" fill="#11868a">govcore</tspan> (Rust core) · same input → same report</text>
</svg>