<svg xmlns="http://www.w3.org/2000/svg" viewBox="0 0 1040 450" font-family="'Segoe UI', Helvetica, Arial, sans-serif">
<rect width="1040" height="450" rx="16" fill="#ffffff" stroke="#e2e5ea" stroke-width="2"/>
<rect width="1040" height="6" rx="3" fill="#d6602e"/>
<text x="28" y="46" font-size="23" font-weight="800" fill="#1b2230">VCF explorer — Space #3</text>
<text x="28" y="72" font-size="14" fill="#5b6573">spaces/03-vcf-explorer/examples/sample.vcf</text>
<rect x="812" y="28" width="200" height="40" rx="20" fill="#11868a"/>
<text x="912" y="54" font-size="16" font-weight="800" fill="#fff" text-anchor="middle">8 SCORED</text>
<rect x="28" y="82" width="86" height="26" rx="6" fill="#db4d36"/>
<text x="71" y="100" font-size="13" font-weight="700" fill="#fff" text-anchor="middle">HIGH</text>
<text x="130" y="100" font-size="15" font-weight="700" fill="#1b2230">17:43044295 rs80357713</text>
<text x="470" y="100" font-size="14" fill="#5b6573">A→T · SNV · score 13.50</text>
<rect x="28" y="120" width="86" height="26" rx="6" fill="#db4d36"/>
<text x="71" y="138" font-size="13" font-weight="700" fill="#fff" text-anchor="middle">HIGH</text>
<text x="130" y="138" font-size="15" font-weight="700" fill="#1b2230">13:32339000 rs80359550</text>
<text x="470" y="138" font-size="14" fill="#5b6573">CT→C · deletion · score 14.50</text>
<rect x="28" y="158" width="86" height="26" rx="6" fill="#e0a200"/>
<text x="71" y="176" font-size="13" font-weight="700" fill="#fff" text-anchor="middle">MODERATE</text>
<text x="130" y="176" font-size="15" font-weight="700" fill="#1b2230">7:140753336 rs113488022</text>
<text x="470" y="176" font-size="14" fill="#5b6573">A→T · SNV · score 7.00</text>
<rect x="28" y="196" width="86" height="26" rx="6" fill="#e0a200"/>
<text x="71" y="214" font-size="13" font-weight="700" fill="#fff" text-anchor="middle">LOW</text>
<text x="130" y="214" font-size="15" font-weight="700" fill="#1b2230">1:11796321 rs1801133</text>
<text x="470" y="214" font-size="14" fill="#5b6573">G→A · SNV · score 1.50</text>
<rect x="28" y="234" width="86" height="26" rx="6" fill="#21a366"/>
<text x="71" y="252" font-size="13" font-weight="700" fill="#fff" text-anchor="middle">BENIGN</text>
<text x="130" y="252" font-size="15" font-weight="700" fill="#1b2230">2:21231524 rs693</text>
<text x="470" y="252" font-size="14" fill="#5b6573">C→T · SNV · score -1.00</text>
<rect x="28" y="272" width="86" height="26" rx="6" fill="#db4d36"/>
<text x="71" y="290" font-size="13" font-weight="700" fill="#fff" text-anchor="middle">HIGH</text>
<text x="130" y="290" font-size="15" font-weight="700" fill="#1b2230">12:25245350 .</text>
<text x="470" y="290" font-size="14" fill="#5b6573">C→A · SNV · score 8.00</text>
<rect x="28" y="310" width="86" height="26" rx="6" fill="#db4d36"/>
<text x="71" y="328" font-size="13" font-weight="700" fill="#fff" text-anchor="middle">HIGH</text>
<text x="130" y="328" font-size="15" font-weight="700" fill="#1b2230">12:25245350 .</text>
<text x="470" y="328" font-size="14" fill="#5b6573">C→T · SNV · score 8.00</text>
<rect x="28" y="348" width="86" height="26" rx="6" fill="#e0a200"/>
<text x="71" y="366" font-size="13" font-weight="700" fill="#fff" text-anchor="middle">MODERATE</text>
<text x="130" y="366" font-size="15" font-weight="700" fill="#1b2230">3:37008823 .</text>
<text x="470" y="366" font-size="14" fill="#5b6573">G→GA · insertion · score 5.00</text>
<line x1="28" y1="410" x2="1012" y2="410" stroke="#eef0f3" stroke-width="1.5"/>
<text x="28" y="432" font-size="13" fill="#8a93a3">deterministic · <tspan font-weight="700" fill="#11868a">govcore</tspan> (Rust core) · same input → same report</text>
</svg>